<?xml version="1.0" standalone="no"?>
<!DOCTYPE svg PUBLIC "-//W3C//DTD SVG 20010904//EN"
 "http://www.w3.org/TR/2001/REC-SVG-20010904/DTD/svg10.dtd">
<svg version="1.0" xmlns="http://www.w3.org/2000/svg"
 width="370.000000pt" height="370.000000pt" viewBox="0 0 370.000000 370.000000"
 preserveAspectRatio="xMidYMid meet">
<metadata>
Created by potrace 1.11, written by Peter Selinger 2001-2013
</metadata>
<g transform="translate(0.000000,370.000000) scale(0.100000,-0.100000)"
fill="#000000" stroke="none">
<path d="M1017 3684 c-1 -1 -25 -4 -52 -8 -101 -12 -210 -62 -284 -130 -49
-46 -108 -140 -134 -215 l-22 -66 -2 -1425 c-3 -1625 -7 -1527 80 -1658 28
-42 114 -108 153 -117 10 -2 46 -12 79 -21 86 -25 502 -24 576 0 8 3 32 7 54
10 22 3 49 8 60 10 11 3 26 5 33 5 9 1 12 135 12 636 l0 635 543 1 c298 0 560
3 582 5 96 12 206 88 245 172 70 147 55 421 -32 585 l-33 62 -605 2 c-333 2
-630 3 -660 3 l-55 0 2 327 c1 181 2 333 2 338 1 7 204 11 629 10 345 0 655 3
689 7 207 24 310 171 305 437 -2 124 -34 260 -80 346 l-27 50 -1028 0 c-565 0
-1029 0 -1030 -1z"/>
</g>
</svg>
